<svg version="1.1" id="Layer_1" xmlns="http://www.w3.org/2000/svg" xmlns:xlink="http://www.w3.org/1999/xlink" x="0px" y="0px"
	 width="100%" viewBox="0 0 200 200" enable-background="new 0 0 200 200" xml:space="preserve">
<path fill="#FDFDFD" opacity="1.000000" stroke="none" 
	d="
M134.000000,1.000000 
	C156.320633,1.000000 178.641266,1.000000 200.980957,1.000000 
	C200.980957,67.616058 200.980957,134.232132 200.980957,200.924103 
	C134.421921,200.924103 67.843719,200.924103 1.132761,200.924103 
	C1.132761,134.333496 1.132761,67.666786 1.126621,1.000044 
	C35.101215,1.000000 69.081947,1.000000 103.552017,1.408813 
	C102.232872,10.391977 100.424385,18.966330 98.775269,26.785057 
	C88.546402,28.888466 79.018890,30.847654 69.709129,32.762062 
	C63.833393,25.162102 57.797482,17.270061 51.631290,9.481155 
	C50.812401,8.446762 49.182568,7.194368 48.198914,7.391731 
	C47.210754,7.589997 46.288338,9.372188 45.815170,10.638836 
	C44.538086,14.057521 43.282578,17.515532 42.434994,21.057600 
	C39.777351,32.163994 37.384735,43.333839 34.722294,54.439026 
	C34.011684,57.403019 33.256191,60.601101 31.584026,63.052322 
	C12.075236,91.650230 8.973918,121.678009 25.077202,152.488464 
	C47.002228,194.437698 100.310059,206.174179 137.685822,187.324600 
	C173.805145,169.108673 189.431854,136.081299 182.740829,96.242989 
	C180.560211,83.259575 178.818039,70.513458 178.208496,57.371761 
	C177.627350,44.842098 174.993805,32.379517 172.759689,19.978035 
	C172.305435,17.456448 169.862411,13.793029 167.875336,13.467270 
	C165.866104,13.137884 162.932327,15.965164 161.018036,17.990444 
	C154.434052,24.956099 148.119019,32.175941 141.786438,39.204659 
	C139.952805,38.322273 138.821213,37.464237 137.572891,37.231010 
	C132.024734,36.194450 131.492722,32.658833 132.006775,27.820990 
	C132.953552,18.910662 133.365311,9.943487 134.000000,1.000000 
z"/>
<path fill="#130A09" opacity="1.000000" stroke="none" 
	d="
M133.532059,1.000000 
	C133.365311,9.943487 132.953552,18.910662 132.006775,27.820990 
	C131.492722,32.658833 132.024734,36.194450 137.572891,37.231010 
	C138.821213,37.464237 139.952805,38.322273 141.786438,39.204659 
	C148.119019,32.175941 154.434052,24.956099 161.018036,17.990444 
	C162.932327,15.965164 165.866104,13.137884 167.875336,13.467270 
	C169.862411,13.793029 172.305435,17.456448 172.759689,19.978035 
	C174.993805,32.379517 177.627350,44.842098 178.208496,57.371761 
	C178.818039,70.513458 180.560211,83.259575 182.740829,96.242989 
	C189.431854,136.081299 173.805145,169.108673 137.685822,187.324600 
	C100.310059,206.174179 47.002228,194.437698 25.077202,152.488464 
	C8.973918,121.678009 12.075236,91.650230 31.584026,63.052322 
	C33.256191,60.601101 34.011684,57.403019 34.722294,54.439026 
	C37.384735,43.333839 39.777351,32.163994 42.434994,21.057600 
	C43.282578,17.515532 44.538086,14.057521 45.815170,10.638836 
	C46.288338,9.372188 47.210754,7.589997 48.198914,7.391731 
	C49.182568,7.194368 50.812401,8.446762 51.631290,9.481155 
	C57.797482,17.270061 63.833393,25.162102 69.709129,32.762062 
	C79.018890,30.847654 88.546402,28.888466 98.775269,26.785057 
	C100.424385,18.966330 102.232872,10.391977 104.020676,1.408813 
	C105.388893,1.000000 106.777779,1.000000 108.510803,1.361490 
	C108.763618,3.316015 108.126953,5.134524 108.676109,6.462761 
	C110.961571,11.990584 121.941635,18.133816 128.610764,17.789145 
	C128.359344,14.299647 131.037048,10.358448 126.375320,7.657300 
	C122.823540,5.599288 119.451828,3.230516 116.000000,1.000000 
	C121.688042,1.000000 127.376076,1.000000 133.532059,1.000000 
M43.964436,123.964371 
	C43.964436,123.964371 43.886093,123.943459 44.379356,123.776962 
	C44.579094,123.502365 44.778831,123.227776 44.994305,123.003525 
	C44.994305,123.003525 44.954430,122.968811 45.673161,122.985016 
	C46.449207,122.312225 47.225254,121.639435 48.181145,120.772171 
	C48.181145,120.772171 48.437759,120.837860 49.074291,120.773781 
	C49.373489,120.490021 49.672684,120.206261 49.983185,119.996056 
	C49.983185,119.996056 49.926308,119.948074 50.536476,119.955887 
	C51.022923,119.644150 51.509369,119.332405 52.283798,118.827110 
	C52.283798,118.827110 52.629921,118.851585 53.338871,118.989799 
	C53.882198,119.893028 54.425526,120.796249 54.477463,122.103111 
	C53.414780,122.769196 52.352097,123.435280 50.746231,124.197449 
	C50.493000,124.452553 50.239765,124.707657 49.993507,125.006897 
	C49.993507,125.006897 49.956100,124.982399 49.534405,125.158096 
	C49.268967,125.327919 49.075161,125.558067 48.957634,125.948570 
	C48.957634,125.948570 48.858738,125.932938 48.151661,125.979858 
	C47.460625,126.711044 46.769592,127.442230 45.851665,128.601471 
	C45.419086,128.788879 44.986511,128.976288 43.904789,129.255219 
	C43.647839,129.585724 43.390888,129.916245 43.123085,130.120895 
	C43.123085,130.120895 43.242584,130.161835 42.686897,130.282104 
	C42.478424,130.584244 42.269951,130.886383 41.693943,131.735245 
	C37.301075,134.972687 32.746284,138.022156 28.623756,141.573425 
	C27.527771,142.517548 27.758327,145.001602 27.379818,146.778625 
	C28.987566,146.960663 31.026327,147.863968 32.130867,147.203918 
	C37.915970,143.746887 43.464310,139.893646 49.740215,136.224670 
	C50.155518,136.134338 50.570820,136.043991 51.642849,136.226318 
	C52.040470,136.811523 52.438091,137.396713 52.392796,138.652115 
	C52.243652,139.424561 52.094509,140.197021 52.001705,140.995331 
	C52.001705,140.995331 51.962940,140.946854 51.440586,141.249451 
	C51.198524,141.794144 50.956463,142.338837 50.330048,143.012665 
	C50.077278,143.152100 49.917587,143.362274 49.331867,143.880371 
	C49.142326,144.199341 48.952785,144.518295 48.867378,144.865570 
	C48.867378,144.865570 48.827938,144.765121 48.298405,144.948288 
	C48.099472,145.256119 47.900539,145.563934 47.317085,146.038422 
	C47.079506,146.214584 46.937840,146.448776 46.384689,146.969452 
	C46.208897,147.286728 46.033100,147.603989 45.946278,147.944778 
	C45.946278,147.944778 45.914150,147.858536 45.399986,148.018448 
	C45.212650,148.312210 45.025311,148.605988 44.928650,148.924789 
	C44.928650,148.924789 44.902020,148.834564 44.380745,148.948929 
	C44.163044,149.215088 43.945343,149.481262 43.860130,149.787964 
	C43.860130,149.787964 43.779751,149.675125 43.195339,149.774292 
	C42.752571,150.140198 42.309803,150.506104 41.954964,150.947479 
	C41.954964,150.947479 41.922882,150.836121 41.322872,150.881104 
	C40.852512,151.222122 40.382149,151.563141 39.994167,151.999115 
	C39.994167,151.999115 39.926155,151.893677 39.397121,151.952911 
	C39.168747,152.205475 38.940372,152.458054 38.929825,152.787186 
	C38.929825,152.787186 38.739693,152.656204 38.178593,152.789139 
	C37.767818,153.177979 37.357048,153.566833 36.994953,154.002502 
	C36.994953,154.002502 36.961212,153.944580 36.290230,154.017960 
	C35.462307,155.323318 34.634384,156.628693 33.806461,157.934052 
	C35.180809,158.337387 36.535976,158.910828 37.937977,159.068893 
	C38.592659,159.142700 39.337959,158.412643 40.614468,157.982925 
	C41.091362,157.692413 41.568253,157.401901 42.690090,157.071259 
	C43.529724,156.457489 44.369362,155.843704 45.077244,155.089432 
	C45.077244,155.089432 45.159637,155.263519 45.748489,155.165451 
	C46.193306,154.799408 46.638123,154.433350 47.013840,154.007355 
	C47.013840,154.007355 47.048332,154.092087 47.568806,154.009277 
	C47.800831,153.764725 48.032860,153.520157 48.078995,153.239777 
	C48.078995,153.239777 48.240532,153.338486 48.830315,153.250961 
	C49.241207,152.848862 49.652100,152.446747 50.516216,151.898560 
	C50.806576,151.727600 50.992416,151.478622 51.628254,150.997269 
	C51.888901,150.726578 52.149544,150.455887 52.755951,150.082733 
	C52.755951,150.082733 52.997662,149.815109 53.494919,149.751144 
	C53.727169,149.523895 53.959419,149.296661 54.604763,149.064682 
	C54.604763,149.064682 54.982563,148.897552 55.505234,148.979034 
	C55.671173,148.919388 55.837112,148.859756 56.740238,148.989075 
	C56.701103,150.585114 57.284256,152.623444 56.517464,153.702301 
	C52.761230,158.987244 48.645557,164.016708 44.536133,169.291504 
	C67.968262,196.425247 131.479904,204.072495 163.176407,159.449890 
	C161.000946,155.828934 158.622116,152.385452 156.843414,148.655777 
	C156.128632,147.157013 156.731262,145.029938 156.734299,143.188843 
	C158.305267,143.808762 160.025513,144.199020 161.413162,145.100952 
	C163.642319,146.549835 165.651566,148.337006 167.753738,149.981232 
	C168.168671,149.545547 168.583603,149.109879 168.998535,148.674194 
	C167.815826,147.067719 166.447311,145.563232 165.495697,143.829895 
	C164.196228,141.462982 162.972778,138.993881 162.204712,136.422836 
	C161.856140,135.255981 162.679871,133.738922 162.971802,132.380722 
	C164.234634,132.884644 165.634979,133.186478 166.732498,133.933319 
	C169.247696,135.644867 171.615097,137.573608 173.990646,139.374832 
	C177.483521,134.317627 176.866943,130.591171 172.689499,127.138016 
	C170.957016,125.705917 169.429581,123.681297 168.608627,121.609276 
	C168.039886,120.173790 168.412247,117.941643 169.225388,116.579704 
	C169.577332,115.990242 172.164398,116.465729 173.618774,116.874878 
	C175.292831,117.345825 176.837021,118.278450 179.812347,119.639374 
	C179.002914,111.361343 178.584091,104.121101 177.505203,96.980583 
	C176.643066,91.274490 174.242340,85.743416 173.826172,80.039688 
	C173.029343,69.118439 173.696152,58.080521 172.701675,47.187241 
	C172.100372,40.600788 169.517899,34.195206 167.925415,26.952654 
	C167.353912,25.009624 166.782425,23.066597 166.136215,20.869528 
	C160.881287,23.734211 163.659683,26.760672 164.555908,30.418995 
	C165.069443,33.410858 166.063705,36.712132 160.652893,35.418774 
	C158.945618,34.031750 157.238342,32.644726 155.531067,31.257700 
	C154.944748,31.658903 154.358429,32.060104 153.772110,32.461308 
	C155.117432,35.306164 156.462738,38.151020 157.823608,41.754543 
	C158.359756,45.173367 157.242050,46.494915 153.606018,44.278786 
	C151.622635,42.769924 149.639236,41.261063 147.420349,39.573036 
	C146.264603,41.087971 145.195038,42.489937 143.462387,44.064739 
	C139.515564,42.849529 135.568726,41.634319 131.624908,40.420040 
	C129.503754,48.958237 131.215088,52.247387 139.317093,55.112103 
	C139.944550,55.333961 140.575989,55.546295 141.195053,55.789829 
	C144.617828,57.136333 144.974213,59.128502 142.565063,61.850170 
	C140.605789,64.063591 138.534454,66.231743 136.925354,68.690002 
	C133.560654,73.830338 131.647491,74.581482 126.583481,70.974586 
	C123.979614,69.119942 121.882530,66.378105 120.022820,63.711872 
	C118.622353,61.704025 118.910049,58.357700 114.748398,59.526627 
	C112.193382,60.244289 108.610207,59.004372 106.809311,60.376606 
	C101.904984,64.113579 96.567589,65.667969 90.650528,66.106323 
	C82.740738,66.692322 82.150879,66.312462 80.295876,58.973911 
	C78.103020,50.298695 78.147141,50.457729 86.817589,48.051876 
	C89.478745,47.313465 92.773216,46.039120 94.088043,43.947872 
	C95.918991,41.035713 96.160576,37.124275 97.187279,33.244236 
	C86.209869,32.543800 76.650452,36.052464 66.691826,38.249836 
	C62.149567,31.821182 57.652939,25.359247 53.015224,19.000210 
	C52.329529,18.060015 50.618233,16.820557 50.010223,17.097919 
	C48.886780,17.610411 47.981930,19.032539 47.423676,20.272734 
	C45.756210,23.977083 49.699463,24.751717 51.055855,26.903255 
	C51.868340,28.192039 52.379368,29.670866 53.025890,31.064276 
	C51.690987,31.421688 50.356083,31.779099 48.311172,31.945333 
	C47.093235,31.721786 45.875294,31.498240 44.697155,31.281998 
	C43.271015,35.992714 43.380177,35.887085 46.313671,38.918655 
	C47.306240,39.944408 47.592869,41.653259 48.009457,43.129852 
	C48.009457,43.129852 48.009071,43.338421 47.655682,43.440773 
	C47.430790,43.567913 47.279945,43.754845 47.062733,43.943874 
	C47.062733,43.943874 46.996677,44.080551 46.161201,44.014076 
	C44.545303,44.194534 42.929405,44.374992 41.058300,44.583950 
	C40.483788,48.559814 39.943176,52.301098 39.259686,56.784039 
	C39.285458,57.538799 39.311234,58.293556 39.066029,59.725506 
	C38.934517,60.441158 38.803001,61.156815 38.110279,62.208492 
	C19.427601,82.596962 15.353463,118.244827 23.999117,136.637604 
	C30.259405,132.695312 36.470806,128.783798 43.250370,124.763374 
	C43.483948,124.470383 43.717525,124.177383 43.964436,123.964371 
M122.377937,28.548367 
	C122.712021,28.072285 123.046097,27.596203 124.082390,27.015121 
	C125.454269,26.362675 126.826149,25.710226 127.998535,25.152657 
	C120.645317,20.899652 113.688286,16.875793 106.827621,12.907677 
	C104.545738,18.342344 104.855583,19.738029 110.369873,22.829809 
	C112.771317,24.176271 115.490776,24.955570 118.230659,26.874113 
	C116.848816,35.465488 115.466965,44.056862 114.085121,52.648239 
	C114.805946,52.778965 115.526772,52.909687 116.247597,53.040413 
	C119.377327,45.360638 120.361984,37.091610 122.000305,28.999996 
	C122.000305,28.999996 122.000656,28.996288 122.377937,28.548367 
M102.892632,30.466021 
	C102.285362,32.873154 101.268082,35.259441 101.144447,37.691162 
	C100.698433,46.463673 96.977051,52.103352 87.691902,53.095787 
	C86.618927,53.210472 85.616302,53.983330 84.638870,54.424919 
	C85.719620,61.721630 85.718262,61.714584 92.785088,60.355736 
	C93.925476,60.136456 95.175224,60.233658 96.218605,59.805168 
	C101.080963,57.808338 106.744019,56.292229 108.489365,50.704876 
	C110.594467,43.965820 111.693733,36.912567 113.222160,30.023355 
	C110.038734,28.271194 107.214661,26.716824 104.172951,25.042664 
	C103.701942,26.801132 103.318237,28.233660 102.892632,30.466021 
M123.263763,58.911129 
	C124.667320,62.700897 126.364639,66.210312 130.825409,67.136963 
	C132.744141,64.835022 134.521698,62.702484 136.710373,60.076706 
	C126.969017,55.939133 123.547394,48.511730 125.653603,38.204258 
	C123.557625,44.959278 120.469772,51.228191 123.263763,58.911129 
z"/>
<path fill="#F2DF58" opacity="1.000000" stroke="none" 
	d="
M115.562500,1.000000 
	C119.451828,3.230516 122.823540,5.599288 126.375320,7.657300 
	C131.037048,10.358448 128.359344,14.299647 128.610764,17.789145 
	C121.941635,18.133816 110.961571,11.990584 108.676109,6.462761 
	C108.126953,5.134524 108.763618,3.316015 108.927460,1.361490 
	C111.041664,1.000000 113.083336,1.000000 115.562500,1.000000 
z"/>
<path fill="#E96160" opacity="1.000000" stroke="none" 
	d="
M54.982563,148.897552 
	C54.982563,148.897552 54.604763,149.064682 54.148510,149.095917 
	C53.460724,149.356461 53.229191,149.585785 52.997658,149.815109 
	C52.997662,149.815109 52.755951,150.082733 52.284492,150.170929 
	C51.566605,150.556625 51.320171,150.854126 51.073746,151.151627 
	C50.992416,151.478622 50.806576,151.727600 49.968613,151.979950 
	C49.027519,152.487061 48.634026,152.912781 48.240532,153.338486 
	C48.240532,153.338486 48.078995,153.239777 47.895924,153.256287 
	C47.491344,153.545883 47.269840,153.818985 47.048332,154.092087 
	C47.048332,154.092087 47.013840,154.007355 46.728371,154.034332 
	C46.015148,154.462036 45.587391,154.862778 45.159637,155.263519 
	C45.159637,155.263519 45.077244,155.089432 44.768845,155.093719 
	C43.655346,155.769135 42.850246,156.440262 42.045143,157.111389 
	C41.568253,157.401901 41.091362,157.692413 39.955414,157.987808 
	C35.250786,158.528000 36.672997,155.909210 36.961212,153.944580 
	C36.961212,153.944580 36.994953,154.002502 37.292656,153.976852 
	C37.973465,153.519531 38.356579,153.087860 38.739693,152.656204 
	C38.739693,152.656204 38.929825,152.787186 39.096718,152.749084 
	C39.484455,152.438553 39.705303,152.166107 39.926155,151.893677 
	C39.926155,151.893677 39.994167,151.999115 40.269325,151.969238 
	C41.003952,151.571609 41.463417,151.203857 41.922882,150.836121 
	C41.922882,150.836121 41.954964,150.947479 42.239098,150.934128 
	C42.942070,150.505569 43.360912,150.090347 43.779755,149.675125 
	C43.779751,149.675125 43.860130,149.787964 44.074944,149.751343 
	C44.493843,149.421326 44.697929,149.127945 44.902016,148.834564 
	C44.902020,148.834564 44.928650,148.924789 45.147484,148.842606 
	C45.548931,148.459793 45.731541,148.159164 45.914150,147.858536 
	C45.914150,147.858536 45.946278,147.944778 46.170143,147.835510 
	C46.560028,147.397812 46.726055,147.069412 46.892082,146.740997 
	C46.937840,146.448776 47.079506,146.214584 47.794888,145.890366 
	C48.457775,145.416580 48.642860,145.090851 48.827942,144.765121 
	C48.827938,144.765121 48.867378,144.865570 49.106148,144.772980 
	C49.513603,144.334656 49.682289,143.988907 49.850975,143.643173 
	C49.917587,143.362274 50.077278,143.152100 50.827072,142.845398 
	C51.537045,142.101028 51.749992,141.523941 51.962940,140.946854 
	C51.962940,140.946854 52.001705,140.995331 52.280643,140.961227 
	C52.651623,139.945389 52.743668,138.963654 52.835709,137.981918 
	C52.438091,137.396713 52.040470,136.811523 51.157127,135.871811 
	C50.145916,135.737579 49.620426,135.957840 49.094936,136.178101 
	C43.464310,139.893646 37.915970,143.746887 32.130867,147.203918 
	C31.026327,147.863968 28.987566,146.960663 27.379820,146.778625 
	C27.758327,145.001602 27.527771,142.517548 28.623756,141.573425 
	C32.746284,138.022156 37.301075,134.972687 42.149555,131.388458 
	C42.817642,130.748398 43.030113,130.455124 43.242584,130.161835 
	C43.242584,130.161835 43.123085,130.120895 43.427162,130.097412 
	C44.005466,129.770523 44.279701,129.467102 44.553936,129.163681 
	C44.986511,128.976288 45.419086,128.788879 46.272179,128.330658 
	C47.414703,127.350876 48.136719,126.641907 48.858734,125.932938 
	C48.858738,125.932938 48.957634,125.948570 49.181030,125.834473 
	C49.683788,125.545761 49.867680,125.299767 49.956100,124.982399 
	C49.956100,124.982399 49.993507,125.006897 50.262001,124.937912 
	C50.783466,124.613068 51.036446,124.357216 51.289417,124.101364 
	C52.352097,123.435280 53.414780,122.769196 55.015930,121.832001 
	C55.681335,120.600998 55.808281,119.641113 55.935219,118.681229 
	C54.833454,118.738007 53.731686,118.794792 52.629921,118.851578 
	C52.629921,118.851585 52.283798,118.827110 51.836136,118.906731 
	C50.901085,119.306923 50.413696,119.627502 49.926308,119.948074 
	C49.926308,119.948074 49.983185,119.996056 49.667805,120.007370 
	C49.047535,120.291748 48.742649,120.564804 48.437759,120.837860 
	C48.437759,120.837860 48.181145,120.772171 47.775139,120.896790 
	C46.564232,121.670540 45.759331,122.319679 44.954430,122.968811 
	C44.954430,122.968811 44.994305,123.003525 44.724472,123.038658 
	C44.265125,123.363678 44.075611,123.653572 43.886093,123.943459 
	C43.886093,123.943459 43.964436,123.964371 43.695961,124.015839 
	C43.179058,124.335640 42.930634,124.603966 42.682209,124.872299 
	C36.470806,128.783798 30.259405,132.695312 23.999117,136.637604 
	C15.353463,118.244827 19.427601,82.596962 38.683144,61.954559 
	C39.283005,60.816521 39.310005,59.932419 39.337006,59.048317 
	C39.311234,58.293556 39.285458,57.538799 39.665752,56.292442 
	C40.977856,52.702404 41.883896,49.603958 42.632065,47.045395 
	C44.288303,45.920326 45.642490,45.000439 46.996677,44.080551 
	C46.996677,44.080551 47.062733,43.943874 47.296310,43.903141 
	C47.737293,43.731365 47.897018,43.556702 48.009071,43.338421 
	C48.009071,43.338421 48.009457,43.129852 48.505756,43.076851 
	C50.072075,42.978962 51.142094,42.934071 52.460739,43.098801 
	C53.568687,44.453773 54.428009,45.599125 55.486992,47.010597 
	C59.532810,44.134571 63.248093,41.493507 66.963379,38.852448 
	C76.650452,36.052464 86.209869,32.543800 97.187279,33.244236 
	C96.160576,37.124275 95.918991,41.035713 94.088043,43.947872 
	C92.773216,46.039120 89.478745,47.313465 86.817589,48.051876 
	C78.147141,50.457729 78.103020,50.298695 80.295876,58.973911 
	C82.150879,66.312462 82.740738,66.692322 90.650528,66.106323 
	C96.567589,65.667969 101.904984,64.113579 106.809311,60.376606 
	C108.610207,59.004372 112.193382,60.244289 114.748398,59.526627 
	C118.910049,58.357700 118.622353,61.704025 120.022820,63.711872 
	C121.882530,66.378105 123.979614,69.119942 126.583481,70.974586 
	C131.647491,74.581482 133.560654,73.830338 136.925354,68.690002 
	C138.534454,66.231743 140.605789,64.063591 142.565063,61.850170 
	C144.974213,59.128502 144.617828,57.136333 141.195053,55.789829 
	C140.575989,55.546295 139.944550,55.333961 139.317093,55.112103 
	C131.215088,52.247387 129.503754,48.958237 131.624908,40.420040 
	C135.568726,41.634319 139.515564,42.849529 144.107132,44.128601 
	C147.593521,46.772114 150.522156,48.243893 153.828445,44.905029 
	C157.242050,46.494915 158.359756,45.173367 157.941574,41.072853 
	C159.013824,38.948883 159.968109,37.506607 160.922379,36.064331 
	C166.063705,36.712132 165.069443,33.410858 164.839920,29.694061 
	C166.024475,28.548874 166.925018,28.128618 167.825562,27.708363 
	C169.517899,34.195206 172.100372,40.600788 172.701675,47.187241 
	C173.696152,58.080521 173.029343,69.118439 173.826172,80.039688 
	C174.242340,85.743416 176.643066,91.274490 177.505203,96.980583 
	C178.584091,104.121101 179.002914,111.361343 179.812347,119.639374 
	C176.837021,118.278450 175.292831,117.345825 173.618774,116.874878 
	C172.164398,116.465729 169.577332,115.990242 169.225388,116.579704 
	C168.412247,117.941643 168.039886,120.173790 168.608627,121.609276 
	C169.429581,123.681297 170.957016,125.705917 172.689499,127.138016 
	C176.866943,130.591171 177.483521,134.317627 173.990646,139.374832 
	C171.615097,137.573608 169.247696,135.644867 166.732498,133.933319 
	C165.634979,133.186478 164.234634,132.884644 162.971802,132.380722 
	C162.679871,133.738922 161.856140,135.255981 162.204712,136.422836 
	C162.972778,138.993881 164.196228,141.462982 165.495697,143.829895 
	C166.447311,145.563232 167.815826,147.067719 168.998535,148.674194 
	C168.583603,149.109879 168.168671,149.545547 167.753738,149.981232 
	C165.651566,148.337006 163.642319,146.549835 161.413162,145.100952 
	C160.025513,144.199020 158.305267,143.808762 156.734299,143.188843 
	C156.731262,145.029938 156.128632,147.157013 156.843414,148.655777 
	C158.622116,152.385452 161.000946,155.828934 163.176407,159.449890 
	C131.479904,204.072495 67.968262,196.425247 44.536133,169.291504 
	C48.645557,164.016708 52.761230,158.987244 56.517464,153.702301 
	C57.284256,152.623444 56.701103,150.585114 56.264771,148.752625 
	C55.520386,148.643295 55.251476,148.770416 54.982563,148.897552 
M122.335777,146.858276 
	C119.454460,143.646240 118.663536,140.734299 122.289757,137.168732 
	C124.442467,135.052032 125.711876,131.939514 127.050224,129.119003 
	C128.442917,126.183945 126.849564,124.601463 123.968849,124.474541 
	C118.490356,124.233170 113.001732,124.199860 107.516663,124.137329 
	C103.974487,124.096939 102.889648,126.074455 104.439453,128.964554 
	C105.984177,131.845184 107.694611,134.973267 110.169060,136.940369 
	C113.904755,139.910141 112.528870,141.814774 110.192810,144.558838 
	C109.003349,145.956039 108.752342,148.152130 108.293449,150.602219 
	C109.200745,150.403427 110.108047,150.204636 111.591278,149.664734 
	C112.896111,147.868576 114.200943,146.072418 115.503922,144.278824 
	C117.811394,146.298294 120.020226,148.231445 122.473663,150.378662 
	C122.667694,148.898026 122.793945,147.934586 122.956314,146.853180 
	C122.956314,146.853180 122.973526,146.963440 122.335777,146.858276 
M83.579987,121.727364 
	C84.164398,119.354126 85.240532,116.980507 85.238640,114.607742 
	C85.233482,108.154961 79.040413,102.321907 73.452019,103.080299 
	C68.336678,103.774490 64.074684,107.947891 63.126499,113.191177 
	C62.266602,117.946243 65.200165,123.499619 69.639442,125.520493 
	C74.220558,127.605934 79.264183,126.398285 83.579987,121.727364 
M147.179337,105.214752 
	C141.838028,107.427704 138.177917,112.480659 138.488190,117.213272 
	C138.760040,121.359734 143.010941,126.367752 146.994385,127.157860 
	C151.916382,128.134140 156.992996,127.450912 159.172455,122.883064 
	C160.736008,119.606079 160.863464,114.748619 159.671249,111.267677 
	C157.998611,106.384117 153.446533,104.198883 147.179337,105.214752 
z"/>
<path fill="#ADA7A2" opacity="1.000000" stroke="none" 
	d="
M102.913574,30.066105 
	C103.318237,28.233660 103.701942,26.801132 104.172951,25.042664 
	C107.214661,26.716824 110.038734,28.271194 113.222160,30.023355 
	C111.693733,36.912567 110.594467,43.965820 108.489365,50.704876 
	C106.744019,56.292229 101.080963,57.808338 96.218605,59.805168 
	C95.175224,60.233658 93.925476,60.136456 92.785088,60.355736 
	C85.718262,61.714584 85.719620,61.721630 84.638870,54.424919 
	C85.616302,53.983330 86.618927,53.210472 87.691902,53.095787 
	C96.977051,52.103352 100.698433,46.463673 101.144447,37.691162 
	C101.268082,35.259441 102.285362,32.873154 102.913574,30.066105 
z"/>
<path fill="#F9F5F4" opacity="1.000000" stroke="none" 
	d="
M66.827606,38.551140 
	C63.248093,41.493507 59.532810,44.134571 55.486992,47.010597 
	C54.428009,45.599125 53.568687,44.453773 52.396294,42.741035 
	C51.062538,38.827934 50.041859,35.482220 49.021179,32.136509 
	C50.356083,31.779099 51.690987,31.421688 53.025890,31.064276 
	C52.379368,29.670866 51.868340,28.192039 51.055855,26.903255 
	C49.699463,24.751717 45.756210,23.977083 47.423676,20.272734 
	C47.981930,19.032539 48.886780,17.610411 50.010223,17.097919 
	C50.618233,16.820557 52.329529,18.060015 53.015224,19.000210 
	C57.652939,25.359247 62.149567,31.821182 66.827606,38.551140 
z"/>
<path fill="#A7A29D" opacity="1.000000" stroke="none" 
	d="
M123.145767,58.523407 
	C120.469772,51.228191 123.557625,44.959278 125.653603,38.204258 
	C123.547394,48.511730 126.969017,55.939133 136.710373,60.076706 
	C134.521698,62.702484 132.744141,64.835022 130.825409,67.136963 
	C126.364639,66.210312 124.667320,62.700897 123.145767,58.523407 
z"/>
<path fill="#E9D85D" opacity="1.000000" stroke="none" 
	d="
M118.065804,25.992451 
	C115.490776,24.955570 112.771317,24.176271 110.369873,22.829809 
	C104.855583,19.738029 104.545738,18.342344 106.827621,12.907677 
	C113.688286,16.875793 120.645317,20.899652 127.998535,25.152657 
	C126.826149,25.710226 125.454269,26.362675 123.421906,27.159855 
	C122.507835,27.868490 122.254250,28.432390 122.000656,28.996288 
	C122.000656,28.996288 122.000305,28.999996 121.679901,28.959688 
	C120.261604,27.943737 119.163704,26.968096 118.065804,25.992451 
z"/>
<path fill="#E3D761" opacity="1.000000" stroke="none" 
	d="
M118.148232,26.433283 
	C119.163704,26.968096 120.261604,27.943737 121.679321,28.960602 
	C120.361984,37.091610 119.377327,45.360638 116.247597,53.040413 
	C115.526772,52.909687 114.805946,52.778965 114.085121,52.648239 
	C115.466965,44.056862 116.848816,35.465488 118.148232,26.433283 
z"/>
<path fill="#CC6468" opacity="1.000000" stroke="none" 
	d="
M48.666176,32.040920 
	C50.041859,35.482220 51.062538,38.827934 52.147667,42.531410 
	C51.142094,42.934071 50.072075,42.978962 48.602081,43.036896 
	C47.592869,41.653259 47.306240,39.944408 46.313671,38.918655 
	C43.380177,35.887085 43.271015,35.992714 44.697155,31.281998 
	C45.875294,31.498240 47.093235,31.721786 48.666176,32.040920 
z"/>
<path fill="#F2E6E5" opacity="1.000000" stroke="none" 
	d="
M153.717224,44.591908 
	C150.522156,48.243893 147.593521,46.772114 144.438675,44.042183 
	C145.195038,42.489937 146.264603,41.087971 147.420349,39.573036 
	C149.639236,41.261063 151.622635,42.769924 153.717224,44.591908 
z"/>
<path fill="#E5DFDE" opacity="1.000000" stroke="none" 
	d="
M160.787628,35.741554 
	C159.968109,37.506607 159.013824,38.948883 157.933807,40.693520 
	C156.462738,38.151020 155.117432,35.306164 153.772110,32.461308 
	C154.358429,32.060104 154.944748,31.658903 155.531067,31.257700 
	C157.238342,32.644726 158.945618,34.031750 160.787628,35.741554 
z"/>
<path fill="#CC6468" opacity="1.000000" stroke="none" 
	d="
M46.578941,44.047310 
	C45.642490,45.000439 44.288303,45.920326 42.632065,47.045395 
	C41.883896,49.603958 40.977856,52.702404 39.737190,55.921616 
	C39.943176,52.301098 40.483788,48.559814 41.058300,44.583950 
	C42.929405,44.374992 44.545303,44.194534 46.578941,44.047310 
z"/>
<path fill="#ECE6E3" opacity="1.000000" stroke="none" 
	d="
M167.875488,27.330509 
	C166.925018,28.128618 166.024475,28.548874 164.902771,29.299515 
	C163.659683,26.760672 160.881287,23.734211 166.136215,20.869528 
	C166.782425,23.066597 167.353912,25.009624 167.875488,27.330509 
z"/>
<path fill="#C65E61" opacity="1.000000" stroke="none" 
	d="
M36.625721,153.981262 
	C36.672997,155.909210 35.250786,158.528000 39.669270,158.019806 
	C39.337959,158.412643 38.592659,159.142700 37.937977,159.068893 
	C36.535976,158.910828 35.180809,158.337387 33.806461,157.934052 
	C34.634384,156.628693 35.462307,155.323318 36.625721,153.981262 
z"/>
<path fill="#240707" opacity="1.000000" stroke="none" 
	d="
M52.984398,118.920685 
	C53.731686,118.794792 54.833454,118.738007 55.935219,118.681229 
	C55.808281,119.641113 55.681335,120.600998 55.261627,121.630180 
	C54.425526,120.796249 53.882198,119.893028 52.984398,118.920685 
z"/>
<path fill="#C65E61" opacity="1.000000" stroke="none" 
	d="
M52.614250,138.317017 
	C52.743668,138.963654 52.651623,139.945389 52.252472,140.948303 
	C52.094509,140.197021 52.243652,139.424561 52.614250,138.317017 
z"/>
<path fill="#240707" opacity="1.000000" stroke="none" 
	d="
M48.505196,125.956398 
	C48.136719,126.641907 47.414703,127.350876 46.385624,128.116638 
	C46.769592,127.442230 47.460625,126.711044 48.505196,125.956398 
z"/>
<path fill="#C65E61" opacity="1.000000" stroke="none" 
	d="
M42.367619,157.091324 
	C42.850246,156.440262 43.655346,155.769135 44.834724,155.163971 
	C44.369362,155.843704 43.529724,156.457489 42.367619,157.091324 
z"/>
<path fill="#240707" opacity="1.000000" stroke="none" 
	d="
M45.313797,122.976913 
	C45.759331,122.319679 46.564232,121.670540 47.685211,120.994019 
	C47.225254,121.639435 46.449207,122.312225 45.313797,122.976913 
z"/>
<path fill="#CC6468" opacity="1.000000" stroke="none" 
	d="
M39.201515,59.386909 
	C39.310005,59.932419 39.283005,60.816521 38.963745,61.786545 
	C38.803001,61.156815 38.934517,60.441158 39.201515,59.386909 
z"/>
<path fill="#E3D761" opacity="1.000000" stroke="none" 
	d="
M122.189301,28.772327 
	C122.254250,28.432390 122.507835,27.868490 123.070801,27.212357 
	C123.046097,27.596203 122.712021,28.072285 122.189301,28.772327 
z"/>
<path fill="#C65E61" opacity="1.000000" stroke="none" 
	d="
M43.487549,149.724701 
	C43.360912,150.090347 42.942070,150.505569 42.195133,150.896393 
	C42.309803,150.506104 42.752571,150.140198 43.487549,149.724701 
z"/>
<path fill="#C65E61" opacity="1.000000" stroke="none" 
	d="
M41.622879,150.858612 
	C41.463417,151.203857 41.003952,151.571609 40.228134,151.921753 
	C40.382149,151.563141 40.852512,151.222122 41.622879,150.858612 
z"/>
<path fill="#240707" opacity="1.000000" stroke="none" 
	d="
M50.231392,119.951981 
	C50.413696,119.627502 50.901085,119.306923 51.692142,119.003510 
	C51.509369,119.332405 51.022923,119.644150 50.231392,119.951981 
z"/>
<path fill="#C65E61" opacity="1.000000" stroke="none" 
	d="
M51.701763,141.098145 
	C51.749992,141.523941 51.537045,142.101028 51.019249,142.780823 
	C50.956463,142.338837 51.198524,141.794144 51.701763,141.098145 
z"/>
<path fill="#C65E61" opacity="1.000000" stroke="none" 
	d="
M48.535423,153.294724 
	C48.634026,152.912781 49.027519,152.487061 49.742004,152.053009 
	C49.652100,152.446747 49.241207,152.848862 48.535423,153.294724 
z"/>
<path fill="#C65E61" opacity="1.000000" stroke="none" 
	d="
M49.417580,136.201385 
	C49.620426,135.957840 50.145916,135.737579 50.828766,135.735474 
	C50.570820,136.043991 50.155518,136.134338 49.417580,136.201385 
z"/>
<path fill="#C65E61" opacity="1.000000" stroke="none" 
	d="
M38.459141,152.722672 
	C38.356579,153.087860 37.973465,153.519531 37.268318,153.953445 
	C37.357048,153.566833 37.767818,153.177979 38.459141,152.722672 
z"/>
<path fill="#C65E61" opacity="1.000000" stroke="none" 
	d="
M45.454063,155.214478 
	C45.587391,154.862778 46.015148,154.462036 46.762920,154.064301 
	C46.638123,154.433350 46.193306,154.799408 45.454063,155.214478 
z"/>
<path fill="#C65E61" opacity="1.000000" stroke="none" 
	d="
M39.661636,151.923294 
	C39.705303,152.166107 39.484455,152.438553 38.987801,152.710815 
	C38.940372,152.458054 39.168747,152.205475 39.661636,151.923294 
z"/>
<path fill="#C65E61" opacity="1.000000" stroke="none" 
	d="
M47.308571,154.050690 
	C47.269840,153.818985 47.491344,153.545883 47.988869,153.274185 
	C48.032860,153.520157 47.800831,153.764725 47.308571,154.050690 
z"/>
<path fill="#CC6468" opacity="1.000000" stroke="none" 
	d="
M47.832375,43.389595 
	C47.897018,43.556702 47.737293,43.731365 47.366516,43.931992 
	C47.279945,43.754845 47.430790,43.567913 47.832375,43.389595 
z"/>
<path fill="#C65E61" opacity="1.000000" stroke="none" 
	d="
M51.350998,151.074448 
	C51.320171,150.854126 51.566605,150.556625 52.111614,150.222168 
	C52.149544,150.455887 51.888901,150.726578 51.350998,151.074448 
z"/>
<path fill="#C65E61" opacity="1.000000" stroke="none" 
	d="
M45.657066,147.938492 
	C45.731541,148.159164 45.548931,148.459793 45.102142,148.830078 
	C45.025311,148.605988 45.212650,148.312210 45.657066,147.938492 
z"/>
<path fill="#C65E61" opacity="1.000000" stroke="none" 
	d="
M53.246284,149.783127 
	C53.229191,149.585785 53.460724,149.356461 53.941963,149.098297 
	C53.959419,149.296661 53.727169,149.523895 53.246284,149.783127 
z"/>
<path fill="#C65E61" opacity="1.000000" stroke="none" 
	d="
M44.641380,148.891754 
	C44.697929,149.127945 44.493843,149.421326 44.008698,149.731079 
	C43.945343,149.481262 44.163044,149.215088 44.641380,148.891754 
z"/>
<path fill="#C65E61" opacity="1.000000" stroke="none" 
	d="
M55.243896,148.938293 
	C55.251476,148.770416 55.520386,148.643295 55.896172,148.658142 
	C55.837112,148.859756 55.671173,148.919388 55.243896,148.938293 
z"/>
<path fill="#240707" opacity="1.000000" stroke="none" 
	d="
M51.017826,124.149414 
	C51.036446,124.357216 50.783466,124.613068 50.258514,124.915840 
	C50.239765,124.707657 50.493000,124.452553 51.017826,124.149414 
z"/>
<path fill="#C65E61" opacity="1.000000" stroke="none" 
	d="
M46.638386,146.855225 
	C46.726055,147.069412 46.560028,147.397812 46.125656,147.823730 
	C46.033100,147.603989 46.208897,147.286728 46.638386,146.855225 
z"/>
<path fill="#C65E61" opacity="1.000000" stroke="none" 
	d="
M48.563175,144.856705 
	C48.642860,145.090851 48.457775,145.416580 47.987148,145.807037 
	C47.900539,145.563934 48.099472,145.256119 48.563175,144.856705 
z"/>
<path fill="#C65E61" opacity="1.000000" stroke="none" 
	d="
M49.591423,143.761780 
	C49.682289,143.988907 49.513603,144.334656 49.054077,144.758820 
	C48.952785,144.518295 49.142326,144.199341 49.591423,143.761780 
z"/>
<path fill="#240707" opacity="1.000000" stroke="none" 
	d="
M48.756027,120.805817 
	C48.742649,120.564804 49.047535,120.291748 49.662151,119.970596 
	C49.672684,120.206261 49.373489,120.490021 48.756027,120.805817 
z"/>
<path fill="#240707" opacity="1.000000" stroke="none" 
	d="
M42.964745,130.221970 
	C43.030113,130.455124 42.817642,130.748398 42.333321,131.115112 
	C42.269951,130.886383 42.478424,130.584244 42.964745,130.221970 
z"/>
<path fill="#240707" opacity="1.000000" stroke="none" 
	d="
M44.229362,129.209442 
	C44.279701,129.467102 44.005466,129.770523 43.432587,130.160339 
	C43.390888,129.916245 43.647839,129.585724 44.229362,129.209442 
z"/>
<path fill="#240707" opacity="1.000000" stroke="none" 
	d="
M44.132725,123.860214 
	C44.075611,123.653572 44.265125,123.363678 44.716606,123.013489 
	C44.778831,123.227776 44.579094,123.502365 44.132725,123.860214 
z"/>
<path fill="#240707" opacity="1.000000" stroke="none" 
	d="
M49.745255,125.070251 
	C49.867680,125.299767 49.683788,125.545761 49.178711,125.784470 
	C49.075161,125.558067 49.268967,125.327919 49.745255,125.070251 
z"/>
<path fill="#240707" opacity="1.000000" stroke="none" 
	d="
M42.966290,124.817833 
	C42.930634,124.603966 43.179058,124.335640 43.689297,123.975853 
	C43.717525,124.177383 43.483948,124.470383 42.966290,124.817833 
z"/>
<path fill="#0A0202" opacity="1.000000" stroke="none" 
	d="
M83.316666,122.018005 
	C79.264183,126.398285 74.220558,127.605934 69.639442,125.520493 
	C65.200165,123.499619 62.266602,117.946243 63.126499,113.191177 
	C64.074684,107.947891 68.336678,103.774490 73.452019,103.080299 
	C79.040413,102.321907 85.233482,108.154961 85.238640,114.607742 
	C85.240532,116.980507 84.164398,119.354126 83.316666,122.018005 
z"/>
<path fill="#0C0303" opacity="1.000000" stroke="none" 
	d="
M147.577332,105.143639 
	C153.446533,104.198883 157.998611,106.384117 159.671249,111.267677 
	C160.863464,114.748619 160.736008,119.606079 159.172455,122.883064 
	C156.992996,127.450912 151.916382,128.134140 146.994385,127.157860 
	C143.010941,126.367752 138.760040,121.359734 138.488190,117.213272 
	C138.177917,112.480659 141.838028,107.427704 147.577332,105.143639 
z"/>
<path fill="#160808" opacity="1.000000" stroke="none" 
	d="
M122.920197,146.971146 
	C122.793945,147.934586 122.667694,148.898026 122.473663,150.378662 
	C120.020226,148.231445 117.811394,146.298294 115.503922,144.278824 
	C114.200943,146.072418 112.896111,147.868576 110.935783,149.827728 
	C109.545898,149.989517 108.811508,149.988312 108.077118,149.987091 
	C108.752342,148.152130 109.003349,145.956039 110.192810,144.558838 
	C112.528870,141.814774 113.904755,139.910141 110.169060,136.940369 
	C107.694611,134.973267 105.984177,131.845184 104.439453,128.964554 
	C102.889648,126.074455 103.974487,124.096939 107.516663,124.137329 
	C113.001732,124.199860 118.490356,124.233170 123.968849,124.474541 
	C126.849564,124.601463 128.442917,126.183945 127.050224,129.119003 
	C125.711876,131.939514 124.442467,135.052032 122.289757,137.168732 
	C118.663536,140.734299 119.454460,143.646240 122.643028,146.916870 
	C122.950279,146.975479 122.920197,146.971146 122.920197,146.971146 
M111.804001,132.655960 
	C116.456802,136.758698 119.343582,135.917511 121.482338,129.605896 
	C117.499008,129.395477 113.598892,129.189453 108.963837,128.944611 
	C110.169228,130.590637 110.742073,131.372879 111.804001,132.655960 
z"/>
<path fill="#2A0909" opacity="1.000000" stroke="none" 
	d="
M108.185287,150.294647 
	C108.811508,149.988312 109.545898,149.989517 110.647812,149.998291 
	C110.108047,150.204636 109.200745,150.403427 108.185287,150.294647 
z"/>
<path fill="#160808" opacity="1.000000" stroke="none" 
	d="
M122.961899,146.969452 
	C122.973526,146.963440 122.956314,146.853180 122.938255,146.912170 
	C122.920197,146.971146 122.950279,146.975479 122.961899,146.969452 
z"/>
<path fill="#E6E7E6" opacity="1.000000" stroke="none" 
	d="
M111.559464,132.405548 
	C110.742073,131.372879 110.169228,130.590637 108.963837,128.944611 
	C113.598892,129.189453 117.499008,129.395477 121.482338,129.605896 
	C119.343582,135.917511 116.456802,136.758698 111.559464,132.405548 
z"/>
</svg>